<svg xmlns="http://www.w3.org/2000/svg" width="247.933" height="211" viewBox="0 0 247.933 211">
  <g id="Group_124"  transform="translate(0)">
    <path id="Path_24"   d="M609.818,642.23l-3.524,1.165-6.17-13.038,5.2-1.719Z" transform="translate(-418.451 -438.333)" fill="#ffb8b8"/>
    <path id="Path_25"  d="M4.506,0h7.158V4.507H0A4.507,4.507,0,0,1,4.506,0Z" transform="translate(180.714 206.301) rotate(-18.29)" fill="#2f2e41"/>
    <path id="Path_26"   d="M542.736,651.256h-3.711l-1.766-14.315h5.478Z" transform="translate(-374.617 -444.122)" fill="#ffb8b8"/>
    <path id="Path_27"   d="M523.954,680.725h7.158v4.507H519.447A4.507,4.507,0,0,1,523.954,680.725Z" transform="translate(-362.197 -474.652)" fill="#2f2e41"/>
    <path id="Path_28"   d="M727.252,604.309l-.189.838c-2.557,11.325-3.468,27.8-2.7,39.387l.59,8.949a1.211,1.211,0,0,0,1.208,1.131h4.449a1.211,1.211,0,0,0,1.2-1.069l3.453-29.354a1.211,1.211,0,0,1,2.357-.223l8.95,26.526a1.211,1.211,0,0,0,1.077.844l6.8.438a1.211,1.211,0,0,0,1.234-1.57l-4.091-11.249c-3.161-10.1-4.86-25.435-5.046-36.011h0a1.211,1.211,0,0,0-1.326-1.184l-16.9,1.609A1.211,1.211,0,0,0,727.252,604.309Z" transform="translate(-562.564 -450.315)" fill="#2f2e41"/>
    <circle id="Ellipse_3"   cx="7.435" cy="7.435" r="7.435" transform="translate(167.147 92.1)" fill="#a0616a"/>
    <path id="Path_29"   d="M737.122,510.78h0a43.885,43.885,0,0,1-4.433-.234,1.823,1.823,0,0,1-1.619-1.966l2.535-24.492c.611-6.928,1.556-13.615,6.334-19.279a1.821,1.821,0,0,1,1.311-.644l.18-.007c1.885-.079,2.754-.01,3,.235l1.315,1.3c8.017,5.929,8.35,43.49,6.375,42.75a25.643,25.643,0,0,0-5.262.217C744.28,510.411,740.141,510.78,737.122,510.78Z" transform="translate(-567.421 -354.35)" fill="#1f95a1"/>
    <path id="Path_30"   d="M654.022,556.089a3.044,3.044,0,0,1,4.513-1.19l8.8-6.294.214,5.617-8.388,5.116a3.061,3.061,0,0,1-5.138-3.249Z" transform="translate(-513.493 -413.255)" fill="#a0616a"/>
    <path id="Path_31"  d="M676.713,519.26l-2.98-5.246,27.145-19.573a5.492,5.492,0,1,1,5.738,9.332Z" transform="translate(-527.446 -374.765)" fill="#1f95a1"/>
    <path id="Path_32"  d="M747.583,412.209a1.469,1.469,0,0,0,1.921.123,13.055,13.055,0,0,0,4.2-4.888,7.9,7.9,0,0,0-.1-7.181,11.237,11.237,0,0,0-4.812-3.949,8.56,8.56,0,0,0-2.323-.9,3.31,3.31,0,0,0-2.407.388,2.079,2.079,0,0,0-.939,2.147,7.824,7.824,0,0,0-3.34-2.242,4.32,4.32,0,0,0-2.551-.185,4.181,4.181,0,0,0-2.528,2.531,5.064,5.064,0,0,0-.382,2.762,3.375,3.375,0,0,0,1.474,2.311,4.553,4.553,0,0,0,3.362.315,28.431,28.431,0,0,1,3.368-.789,3.483,3.483,0,0,1,3.129,1.1,4.778,4.778,0,0,1,.73,2.3l.575,4.189a5.109,5.109,0,0,0,.457,1.75A1.006,1.006,0,0,0,747.583,412.209Z" transform="translate(-569.66 -306.388)" fill="#2f2e41"/>
    <path id="Path_33"   d="M819.969,589.828a3.044,3.044,0,0,1-.333-4.656l-4.555-9.812,5.56.831,3.473,9.19a3.061,3.061,0,0,1-4.145,4.447Z" transform="translate(-626.004 -431.911)" fill="#a0616a"/>
    <path id="Path_34"   d="M781.736,513.015l-5.246,2.98L756.918,488.85a5.492,5.492,0,1,1,9.332-5.738Z" transform="translate(-584.725 -365.52)" fill="#1f95a1"/>
    <path id="Path_22"  d="M441.629,151.535h-1.157V119.843A18.343,18.343,0,0,0,422.129,101.5H354.983a18.343,18.343,0,0,0-18.343,18.343V293.712a18.343,18.343,0,0,0,18.343,18.343h67.146a18.343,18.343,0,0,0,18.343-18.343V174.095h1.157Z" transform="translate(-292.399 -101.5)" fill="#e6e6e6"/>
    <path id="Path_23"   d="M434.527,117.258h-8.764a6.508,6.508,0,0,1-6.026,8.966H381.269a6.508,6.508,0,0,1-6.026-8.966h-8.186a13.7,13.7,0,0,0-13.7,13.7V304.573a13.7,13.7,0,0,0,13.7,13.7h67.47a13.7,13.7,0,0,0,13.7-13.7h0V130.956a13.7,13.7,0,0,0-13.7-13.7Z" transform="translate(-304.057 -112.488)" fill="#fff"/>
    <path id="Path_35"  d="M436.833,310.073a31.786,31.786,0,1,1,31.786-31.786,31.786,31.786,0,0,1-31.786,31.786Zm0-62.967a31.181,31.181,0,1,0,31.181,31.181A31.181,31.181,0,0,0,436.833,247.105Z" transform="translate(-340.098 -202.605)" fill="#3f3d56"/>
    <path id="Path_36"  d="M433.822,227.261a10.987,10.987,0,0,0,3.942-9.472,8.882,8.882,0,0,0-6.6-7.541,7.476,7.476,0,0,0-8.514,4.732c-.582-6.561-1.253-13.4-4.742-18.986a20.107,20.107,0,0,0-14.559-9.327,18.04,18.04,0,0,0-15.87,6.478A16.373,16.373,0,0,0,385.463,210c1.908,3.958,5.423,6.9,9.106,9.3,11.75,7.645,26.325,10.229,40.193,8.188Z" transform="translate(-325.413 -160.813)" fill="#e6e6e6"/>
    <path id="Path_37"   d="M412.626,192.983a96.97,96.97,0,0,1,28.493,38.527c.272.666-.81.956-1.078.3a95.891,95.891,0,0,0-28.2-38.034C411.276,193.319,412.072,192.532,412.626,192.983Z" transform="translate(-344.699 -165.194)" fill="#fff"/>
    <circle id="Ellipse_4"   cx="3.33" cy="3.33" r="3.33" transform="translate(66.262 131.989)" fill="#3f3d56"/>
    <path id="Path_38"   d="M499.512,545.344H457.131a2.422,2.422,0,1,1,0-4.844h42.382a2.422,2.422,0,0,1,0,4.844Z" transform="translate(-374.726 -407.603)" fill="#ccc"/>
    <path id="Path_39"  d="M485.9,545.305H456.484a2.451,2.451,0,0,1,0-4.9H485.9a2.451,2.451,0,1,1,0,4.9Z" transform="translate(-374.255 -407.536)" fill="#1f95a1"/>
    <circle id="Ellipse_5"   cx="3.33" cy="3.33" r="3.33" transform="translate(66.262 146.519)" fill="#3f3d56"/>
    <path id="Path_40"   d="M499.512,593.344H457.131a2.422,2.422,0,0,1,0-4.844h42.382a2.422,2.422,0,0,1,0,4.844Z" transform="translate(-374.726 -441.072)" fill="#ccc"/>
    <circle id="Ellipse_6"   cx="3.33" cy="3.33" r="3.33" transform="translate(66.262 161.05)" fill="#3f3d56"/>
    <path id="Path_41"   d="M499.512,641.344H457.131a2.422,2.422,0,1,1,0-4.844h42.382a2.422,2.422,0,0,1,0,4.844Z" transform="translate(-374.726 -474.542)" fill="#ccc"/>
    <path id="Path_42"   d="M476.21,593.305H456.484a2.451,2.451,0,0,1,0-4.9h19.725a2.451,2.451,0,0,1,0,4.9Z" transform="translate(-374.255 -441.005)" fill="#1f95a1"/>
    <path id="Path_43"   d="M493.768,641.305H456.484a2.451,2.451,0,0,1,0-4.9h37.283a2.451,2.451,0,0,1,0,4.9Z" transform="translate(-374.255 -474.474)" fill="#1f95a1"/>
    <path id="Path_44"   d="M556.057,303.716H551.9V291.421a1.364,1.364,0,0,1,1.362-1.362h1.436a1.364,1.364,0,0,1,1.362,1.362Z" transform="translate(-442.492 -232.977)" fill="#3f3d56"/>
    <path id="Path_45"  d="M482.036,323.924H442.264l-.143-22.416a2.586,2.586,0,0,1,.778-1.86l9.991-9.731a2.562,2.562,0,0,1,1.772-.73l16.722-.153a2.59,2.59,0,0,1,1.993.917v0l7.942,9.74a3.187,3.187,0,0,1,.715,2.009Z" transform="translate(-365.949 -232.263)" fill="#3f3d56"/>
    <path id="Path_46"   d="M524.743,327.01H503.37V306.921a2.575,2.575,0,0,1,.615-1.67l9.286-10.887h0a2.568,2.568,0,0,1,1.958-.9h.01a2.569,2.569,0,0,1,1.961.918l6.94,8.263a2.576,2.576,0,0,1,.6,1.655Z" transform="translate(-408.656 -235.349)" fill="#1f95a1"/>
    <path id="Path_47"  d="M535.158,369.34h-3.092a.758.758,0,0,1-.757-.757V365.99a.758.758,0,0,1,.757-.757h3.092a.758.758,0,0,1,.757.757v2.593A.758.758,0,0,1,535.158,369.34Z" transform="translate(-428.137 -285.394)" fill="#fff"/>
    <path id="Path_48"   d="M535.158,347.533h-3.092a.758.758,0,0,1-.757-.757v-2.532a.758.758,0,0,1,.757-.757h3.092a.758.758,0,0,1,.757.757v2.532A.758.758,0,0,1,535.158,347.533Z" transform="translate(-428.137 -270.231)" fill="#fff"/>
    <path id="Path_49"   d="M471.986,366.006h-3.092a.758.758,0,0,1-.757-.757v-2.593a.758.758,0,0,1,.757-.757h3.092a.758.758,0,0,1,.757.757v2.593A.758.758,0,0,1,471.986,366.006Z" transform="translate(-384.089 -283.07)" fill="#fff"/>
    <path id="Path_50"   d="M471.986,344.2h-3.092a.758.758,0,0,1-.757-.757V340.91a.758.758,0,0,1,.757-.757h3.092a.758.758,0,0,1,.757.757v2.532A.758.758,0,0,1,471.986,344.2Z" transform="translate(-384.089 -267.907)" fill="#fff"/>
    <path id="Path_51"  d="M474.1,403.757H420a.3.3,0,1,1,0-.605h54.1a.3.3,0,0,1,0,.605Z" transform="translate(-350.312 -311.834)" fill="#3f3d56"/>
    <path id="Path_52"   d="M438.13,797.105H190.8a.3.3,0,0,1,0-.605H438.13a.3.3,0,0,1,0,.605Z" transform="translate(-190.5 -586.105)" fill="#3f3d56"/>
  </g>
</svg>
